<?xml version="1.0" standalone="no"?>
<!DOCTYPE svg PUBLIC "-//W3C//DTD SVG 20010904//EN"
 "http://www.w3.org/TR/2001/REC-SVG-20010904/DTD/svg10.dtd">
<svg version="1.0" xmlns="http://www.w3.org/2000/svg"
 width="200.000000pt" height="200.000000pt" viewBox="0 0 200.000000 200.000000"
 preserveAspectRatio="xMidYMid meet">
<metadata>
Created by potrace 1.14, written by Peter Selinger 2001-2017
</metadata>
<g transform="translate(0.000000,200.000000) scale(0.100000,-0.100000)"
fill="#000000" stroke="none">
<path d="M793 1965 c-282 -51 -523 -216 -661 -451 -46 -79 -99 -220 -115 -308
-21 -110 -16 -298 11 -397 79 -293 288 -515 572 -607 91 -30 148 -37 275 -36
363 3 654 231 747 584 20 76 27 228 13 300 -39 216 -178 405 -368 499 -330
163 -703 47 -851 -264 -79 -165 -79 -333 0 -493 187 -381 745 -361 859 33 62
212 -78 428 -286 443 -149 10 -264 -76 -282 -212 -21 -157 158 -266 257 -155
24 27 27 38 23 71 -7 53 -31 78 -77 78 -20 0 -41 -5 -48 -12 -21 -21 -14 17 9
45 28 36 89 52 137 36 87 -29 135 -98 133 -194 -2 -207 -232 -326 -435 -226
-147 72 -228 239 -197 406 39 213 213 362 432 371 295 12 540 -218 554 -520
16 -355 -273 -650 -636 -648 -469 3 -801 437 -691 903 68 285 275 505 554 588
91 27 138 33 248 33 245 -2 483 -107 648 -286 64 -69 137 -188 170 -274 26
-68 35 -101 57 -212 9 -46 6 -214 -5 -285 -15 -93 -63 -235 -105 -311 -65
-116 -110 -169 -266 -316 -36 -33 -37 -70 -4 -103 42 -43 73 -32 172 60 186
172 319 425 351 670 11 80 6 295 -7 360 -67 318 -252 570 -531 722 -66 36
-175 76 -267 99 -89 21 -297 26 -390 9z"/>
</g>
</svg>
